<?xml version="1.0" encoding="utf-8"?>
<!-- Generator: Adobe Illustrator 22.0.0, SVG Export Plug-In . SVG Version: 6.00 Build 0)  -->
<svg version="1.1" id="Layer_1" xmlns="http://www.w3.org/2000/svg" xmlns:xlink="http://www.w3.org/1999/xlink" x="0px" y="0px"
	 viewBox="0 0 176.4 176.5" style="enable-background:new 0 0 176.4 176.5;" xml:space="preserve">
<g id="XMLID_229_">
	<g id="XMLID_690_">
		<g id="XMLID_691_">
			<g>
				<g id="XMLID_44_">
					<g id="XMLID_48_">
						<path id="XMLID_49_" d="M88.2,176.5v-34.2c36.2,0,64.3-35.9,50.4-74c-5.1-14.1-16.4-25.4-30.5-30.5C70,24,34.1,52,34.1,88.2
							l0,0H0C0,30.5,55.8-14.5,116.3,4.4c26.4,8.3,47.5,29.3,55.7,55.7C190.9,120.7,146,176.5,88.2,176.5z"/>
					</g>
					<polygon id="XMLID_47_" points="88.3,142.4 54.3,142.4 54.3,108.4 54.3,108.4 88.3,108.4 88.3,108.4 					"/>
					<polygon id="XMLID_46_" points="54.3,168.6 28.1,168.6 28.1,168.6 28.1,142.4 54.3,142.4 					"/>
					<path id="XMLID_45_" d="M28.1,142.4H6.2l0,0v-21.9l0,0h21.9l0,0V142.4z"/>
				</g>
			</g>
		</g>
	</g>
</g>
</svg>
