<?xml version="1.0" encoding="utf-8"?>
<!-- Generator: Adobe Illustrator 22.0.0, SVG Export Plug-In . SVG Version: 6.00 Build 0)  -->
<svg version="1.1" id="Layer_1" xmlns="http://www.w3.org/2000/svg" xmlns:xlink="http://www.w3.org/1999/xlink" x="0px" y="0px"
	 viewBox="0 0 13.5 15" style="enable-background:new 0 0 13.5 15;" xml:space="preserve">
<style type="text/css">
	.st0{fill:#FFFFFF;}
</style>
<title>Control</title>
<desc>Created with Sketch.</desc>
<g>
	<path class="st0" d="M8.8,11.9c0.2-1.1,1.2-2,2.4-2c1.4,0,2.5,1.1,2.5,2.5s-1.1,2.5-2.5,2.5c-1.2,0-2.2-0.9-2.4-2h-9.1v-1H8.8z
		 M4.7,6.9h9.1v1H4.7c-0.2,1.1-1.2,2-2.4,2c-1.4,0-2.5-1.1-2.5-2.5s1.1-2.5,2.5-2.5C3.5,4.9,4.5,5.8,4.7,6.9z M5.8,1.9
		c0.2-1.1,1.2-2,2.4-2s2.2,0.9,2.4,2h3.1v1h-3.1c-0.2,1.1-1.2,2-2.4,2S6,4.1,5.8,2.9h-6.1v-1H5.8z M8.2,3.9c0.8,0,1.5-0.7,1.5-1.5
		S9.1,0.9,8.2,0.9S6.7,1.6,6.7,2.4S7.4,3.9,8.2,3.9z M2.2,8.9c0.8,0,1.5-0.7,1.5-1.5S3.1,5.9,2.2,5.9S0.7,6.6,0.7,7.4
		S1.4,8.9,2.2,8.9z M11.2,13.9c0.8,0,1.5-0.7,1.5-1.5s-0.7-1.5-1.5-1.5c-0.8,0-1.5,0.7-1.5,1.5S10.4,13.9,11.2,13.9z"/>
</g>
</svg>
